<?xml version="1.0" encoding="iso-8859-1"?>
<!-- Generator: Adobe Illustrator 18.0.0, SVG Export Plug-In . SVG Version: 6.00 Build 0)  -->
<!DOCTYPE svg PUBLIC "-//W3C//DTD SVG 1.1//EN" "http://www.w3.org/Graphics/SVG/1.1/DTD/svg11.dtd">
<svg version="1.1" id="Capa_1" xmlns="http://www.w3.org/2000/svg" xmlns:xlink="http://www.w3.org/1999/xlink" x="0px" y="0px"
	 viewBox="0 0 315.517 315.517" style="enable-background:new 0 0 315.517 315.517;" xml:space="preserve">
<g>
	<path d="M210.4,122.742v-16.645h-31.154V95.235h21.746l2.187-21.103h16.295V0H96.043v74.132h16.294l2.186,21.103h21.747v10.861
		h-31.154v16.645h-5.751v-19.684H64.182v19.684H36.059v192.775h243.4V122.742H210.4z M121.043,25h73.432v24.132h-73.432V25z
		 M157.758,293.893c-44.644,0-80.963-36.319-80.963-80.963c0-45.069,36.82-80.963,80.963-80.963c44.22,0,80.963,35.97,80.963,80.963
		C238.721,257.573,202.402,293.893,157.758,293.893z"/>
	<path d="M157.758,171.967c-22.587,0-40.963,18.376-40.963,40.963s18.376,40.963,40.963,40.963s40.963-18.376,40.963-40.963
		S180.345,171.967,157.758,171.967z"/>
</g>
<g>
</g>
<g>
</g>
<g>
</g>
<g>
</g>
<g>
</g>
<g>
</g>
<g>
</g>
<g>
</g>
<g>
</g>
<g>
</g>
<g>
</g>
<g>
</g>
<g>
</g>
<g>
</g>
<g>
</g>
</svg>
